<?xml version="1.0" encoding="UTF-8" standalone="no"?>
<!DOCTYPE svg PUBLIC "-//W3C//DTD SVG 1.1//EN"
 "http://www.w3.org/Graphics/SVG/1.1/DTD/svg11.dtd">
<!-- Generated by graphviz version 12.2.0 (20241103.1931)
 -->
<!-- Title: G Pages: 1 -->
<svg width="218pt" height="188pt"
 viewBox="0.00 0.00 217.66 188.00" xmlns="http://www.w3.org/2000/svg" xmlns:xlink="http://www.w3.org/1999/xlink">
<g id="graph0" class="graph" transform="scale(1 1) rotate(0) translate(4 184)">
<title>G</title>
<polygon fill="white" stroke="none" points="-4,4 -4,-184 213.66,-184 213.66,4 -4,4"/>
<!-- example&#45;package -->
<g id="node1" class="node">
<title>example&#45;package</title>
<ellipse fill="none" stroke="black" cx="99.83" cy="-162" rx="75.92" ry="18"/>
<text text-anchor="middle" x="99.83" y="-156.95" font-family="Times New Roman,serif" font-size="14.00">example&#45;package</text>
</g>
<!-- dep1 -->
<g id="node2" class="node">
<title>dep1</title>
<ellipse fill="none" stroke="black" cx="99.83" cy="-90" rx="28.83" ry="18"/>
<text text-anchor="middle" x="99.83" y="-84.95" font-family="Times New Roman,serif" font-size="14.00">dep1</text>
</g>
<!-- example&#45;package&#45;&gt;dep1 -->
<g id="edge1" class="edge">
<title>example&#45;package&#45;&gt;dep1</title>
<path fill="none" stroke="black" d="M99.83,-143.7C99.83,-136.41 99.83,-127.73 99.83,-119.54"/>
<polygon fill="black" stroke="black" points="103.33,-119.62 99.83,-109.62 96.33,-119.62 103.33,-119.62"/>
</g>
<!-- dep3 -->
<g id="node3" class="node">
<title>dep3</title>
<ellipse fill="none" stroke="black" cx="28.83" cy="-18" rx="28.83" ry="18"/>
<text text-anchor="middle" x="28.83" y="-12.95" font-family="Times New Roman,serif" font-size="14.00">dep3</text>
</g>
<!-- example&#45;package&#45;&gt;dep3 -->
<g id="edge6" class="edge">
<title>example&#45;package&#45;&gt;dep3</title>
<path fill="none" stroke="black" d="M85.93,-144.1C78.13,-134.05 68.63,-120.8 61.83,-108 51.43,-88.42 42.84,-64.84 37.04,-46.87"/>
<polygon fill="black" stroke="black" points="40.41,-45.92 34.09,-37.42 33.73,-48.01 40.41,-45.92"/>
</g>
<!-- dep2 -->
<g id="node5" class="node">
<title>dep2</title>
<ellipse fill="none" stroke="black" cx="177.83" cy="-90" rx="28.83" ry="18"/>
<text text-anchor="middle" x="177.83" y="-84.95" font-family="Times New Roman,serif" font-size="14.00">dep2</text>
</g>
<!-- example&#45;package&#45;&gt;dep2 -->
<g id="edge4" class="edge">
<title>example&#45;package&#45;&gt;dep2</title>
<path fill="none" stroke="black" d="M118.32,-144.41C128.87,-134.94 142.23,-122.95 153.61,-112.74"/>
<polygon fill="black" stroke="black" points="155.62,-115.63 160.73,-106.35 150.95,-110.42 155.62,-115.63"/>
</g>
<!-- dep1&#45;&gt;dep3 -->
<g id="edge2" class="edge">
<title>dep1&#45;&gt;dep3</title>
<path fill="none" stroke="black" d="M84.77,-74.15C75.27,-64.78 62.79,-52.48 52.04,-41.88"/>
<polygon fill="black" stroke="black" points="54.52,-39.41 44.95,-34.89 49.61,-44.4 54.52,-39.41"/>
</g>
<!-- dep4 -->
<g id="node4" class="node">
<title>dep4</title>
<ellipse fill="none" stroke="black" cx="104.83" cy="-18" rx="28.83" ry="18"/>
<text text-anchor="middle" x="104.83" y="-12.95" font-family="Times New Roman,serif" font-size="14.00">dep4</text>
</g>
<!-- dep1&#45;&gt;dep4 -->
<g id="edge3" class="edge">
<title>dep1&#45;&gt;dep4</title>
<path fill="none" stroke="black" d="M101.07,-71.7C101.59,-64.41 102.21,-55.73 102.79,-47.54"/>
<polygon fill="black" stroke="black" points="106.28,-47.84 103.5,-37.61 99.3,-47.34 106.28,-47.84"/>
</g>
<!-- dep5 -->
<g id="node6" class="node">
<title>dep5</title>
<ellipse fill="none" stroke="black" cx="180.83" cy="-18" rx="28.83" ry="18"/>
<text text-anchor="middle" x="180.83" y="-12.95" font-family="Times New Roman,serif" font-size="14.00">dep5</text>
</g>
<!-- dep2&#45;&gt;dep5 -->
<g id="edge5" class="edge">
<title>dep2&#45;&gt;dep5</title>
<path fill="none" stroke="black" d="M178.57,-71.7C178.89,-64.41 179.26,-55.73 179.61,-47.54"/>
<polygon fill="black" stroke="black" points="183.1,-47.76 180.03,-37.62 176.11,-47.46 183.1,-47.76"/>
</g>
</g>
</svg>
